{"accessors" : [{"bufferView" : 0, "byteOffset" : 0, "componentType" : 5123, "count" : 22728, "type" : "SCALAR", "max" : [6268], "min" : [0]}, {"bufferView" : 1, "byteOffset" : 0, "componentType" : 5126, "count" : 6269, "type" : "VEC3", "max" : [68.9220962524414, 116.884101867676, 69.7993011474609], "min" : [-69.9455032348633, 0, -69.1270980834961]}, {"bufferView" : 1, "byteOffset" : 12, "componentType" : 5126, "count" : 6269, "type" : "VEC3", "max" : [1.00000441074371, 1.00000441074371, 1.00000441074371], "min" : [-1.00000441074371, -1.00000441074371, -1.00000441074371]}, {"bufferView" : 1, "byteOffset" : 24, "componentType" : 5126, "count" : 6269, "type" : "VEC2", "max" : [2.46630001068115, 1], "min" : [-11.9722003936768, 0]}], "asset" : {"generator" : "Aspose.3D 20.2.1", "version" : "2.0"}, "buffers" : [{"uri" : "buffer.bin", "byteLength" : 246072}], "bufferViews" : [{"buffer" : 0, "byteOffset" : 0, "byteLength" : 45456, "target" : 34963}, {"buffer" : 0, "byteOffset" : 45460, "byteLength" : 200608, "byteStride" : 32, "target" : 34962}], "materials" : [{"pbrMetallicRoughness" : {"baseColorFactor" : [0.5, 0.5, 0.5, 1], "metallicFactor" : 0, "roughnessFactor" : 1}, "emissiveFactor" : [0, 0, 0], "alphaMode" : "OPAQUE", "doubleSided" : false}], "meshes" : [{"primitives" : [{"attributes" : {"POSITION" : 1, "NORMAL" : 2, "TEXCOORD_0" : 3}, "indices" : 0, "material" : 0, "mode" : 4}]}], "nodes" : [{"mesh" : 0, "name" : "Plane001"}], "scene" : 0, "scenes" : [{"nodes" : [0]}]}